# xmcd CD database file
#
# Track frame offsets:
#	150
#	23118
#	51891
#	80880
#	100204
#	124571
#	160950
#	183039
#	202295
#
# Disc length: 3016 seconds
#
# Revision: 1
# Processed by: cddbd v1.5.1PL0 Copyright (c) Steve Scherf et al.
# Submitted via: CDex 1.51
#
DISCID=760bc609
DTITLE=中島みゆき - 月−WINGS
DYEAR=1900
DGENRE=Pop
TTITLE0=１人で生まれて来たのだから
TTITLE1=紅い河
TTITLE2=LAST SCENE
TTITLE3=女という商売
TTITLE4=SMILE, SMILE
TTITLE5=PAIN
TTITLE6=白菊
TTITLE7=時効
TTITLE8=愛から遠く離れて
EXTD=
EXTT0=
EXTT1=
EXTT2=
EXTT3=
EXTT4=
EXTT5=
EXTT6=
EXTT7=
EXTT8=
PLAYORDER=
